<svg width="87" height="25" viewBox="0 0 87 25" fill="none" xmlns="http://www.w3.org/2000/svg">
<rect x="0.25" y="0.25" width="86.5" height="24.5" rx="12.25" fill="#EDF2FF"/>
<rect x="0.25" y="0.25" width="86.5" height="24.5" rx="12.25" stroke="#CDDDFF" stroke-width="0.5"/>
<circle cx="25" cy="12.5" r="4" fill="#417AFF"/>
<path d="M45.8536 10.6782C45.7762 10.2942 45.6188 9.95166 45.3812 9.65055C45.1464 9.34668 44.8494 9.10912 44.4903 8.93784C44.134 8.76657 43.7445 8.68094 43.3218 8.68094C42.7831 8.68094 42.2956 8.82044 41.8591 9.09945C41.4254 9.37845 41.0815 9.78729 40.8273 10.326C40.5732 10.8646 40.4461 11.5083 40.4461 12.2569C40.4461 13.0083 40.5718 13.6533 40.8232 14.192C41.0773 14.7307 41.4227 15.1395 41.8591 15.4185C42.2956 15.6948 42.7831 15.8329 43.3218 15.8329C43.7445 15.8329 44.134 15.7486 44.4903 15.5801C44.8467 15.4088 45.1436 15.1727 45.3812 14.8715C45.6188 14.5677 45.7762 14.2251 45.8536 13.8439H46.6948C46.6008 14.3715 46.4006 14.8453 46.0939 15.2652C45.7901 15.6851 45.3992 16.0152 44.9213 16.2555C44.4434 16.4959 43.9102 16.616 43.3218 16.616C42.6064 16.616 41.9696 16.4378 41.4116 16.0815C40.8536 15.7224 40.4171 15.2141 40.1022 14.5566C39.7901 13.8964 39.634 13.1298 39.634 12.2569C39.634 11.384 39.7901 10.6188 40.1022 9.96133C40.4171 9.3011 40.8536 8.79282 41.4116 8.43646C41.9696 8.07735 42.6064 7.89779 43.3218 7.89779C43.9075 7.89779 44.4378 8.01657 44.913 8.25414C45.3909 8.49171 45.7831 8.82182 46.0898 9.24448C46.3964 9.66436 46.5981 10.1423 46.6948 10.6782H45.8536ZM50.1339 16.6326C49.5842 16.6326 49.0953 16.4945 48.6671 16.2182C48.2389 15.9392 47.9047 15.5511 47.6643 15.0539C47.4268 14.5566 47.308 13.9876 47.308 13.3467C47.308 12.7003 47.4268 12.1285 47.6643 11.6312C47.9047 11.1312 48.2389 10.7431 48.6671 10.4669C49.0953 10.1878 49.5842 10.0483 50.1339 10.0483C50.6837 10.0483 51.1712 10.1878 51.5966 10.4669C52.0248 10.7431 52.3577 11.1312 52.5953 11.6312C52.8356 12.1312 52.9558 12.703 52.9558 13.3467C52.9558 13.9876 52.837 14.5566 52.5994 15.0539C52.3618 15.5511 52.029 15.9392 51.6008 16.2182C51.1726 16.4945 50.6837 16.6326 50.1339 16.6326ZM48.1118 13.3467C48.1118 13.8191 48.1906 14.2514 48.348 14.6436C48.5055 15.0331 48.7361 15.3425 49.04 15.5718C49.3466 15.8011 49.7113 15.9157 50.1339 15.9157C50.5538 15.9157 50.9157 15.8011 51.2196 15.5718C51.5262 15.3425 51.7582 15.0331 51.9157 14.6436C52.0759 14.2514 52.156 13.8191 52.156 13.3467C52.156 12.8743 52.0759 12.442 51.9157 12.0497C51.7582 11.6575 51.5262 11.3453 51.2196 11.1133C50.9157 10.8812 50.5538 10.7652 50.1339 10.7652C49.714 10.7652 49.3508 10.8812 49.0442 11.1133C48.7403 11.3453 48.5082 11.6575 48.348 12.0497C48.1906 12.442 48.1118 12.8743 48.1118 13.3467ZM54.6457 16.5H53.846V8.01381H54.6457V16.5ZM58.3683 16.6326C57.8186 16.6326 57.3296 16.4945 56.9015 16.2182C56.4733 15.9392 56.139 15.5511 55.8987 15.0539C55.6611 14.5566 55.5423 13.9876 55.5423 13.3467C55.5423 12.7003 55.6611 12.1285 55.8987 11.6312C56.139 11.1312 56.4733 10.7431 56.9015 10.4669C57.3296 10.1878 57.8186 10.0483 58.3683 10.0483C58.918 10.0483 59.4056 10.1878 59.831 10.4669C60.2592 10.7431 60.5921 11.1312 60.8296 11.6312C61.07 12.1312 61.1901 12.703 61.1901 13.3467C61.1901 13.9876 61.0713 14.5566 60.8338 15.0539C60.5962 15.5511 60.2633 15.9392 59.8352 16.2182C59.407 16.4945 58.918 16.6326 58.3683 16.6326ZM56.3462 13.3467C56.3462 13.8191 56.4249 14.2514 56.5824 14.6436C56.7399 15.0331 56.9705 15.3425 57.2744 15.5718C57.581 15.8011 57.9457 15.9157 58.3683 15.9157C58.7882 15.9157 59.1501 15.8011 59.4539 15.5718C59.7606 15.3425 59.9926 15.0331 60.1501 14.6436C60.3103 14.2514 60.3904 13.8191 60.3904 13.3467C60.3904 12.8743 60.3103 12.442 60.1501 12.0497C59.9926 11.6575 59.7606 11.3453 59.4539 11.1133C59.1501 10.8812 58.7882 10.7652 58.3683 10.7652C57.9484 10.7652 57.5852 10.8812 57.2785 11.1133C56.9747 11.3453 56.7426 11.6575 56.5824 12.0497C56.4249 12.442 56.3462 12.8743 56.3462 13.3467ZM62.0804 10.1354H62.8594V11.1174H62.9133C62.9961 10.9047 63.1232 10.7169 63.2945 10.5539C63.4658 10.3909 63.6674 10.2652 63.8995 10.1768C64.1315 10.0856 64.3774 10.0401 64.637 10.0401C64.7116 10.0401 64.8483 10.0442 65.0472 10.0525V10.8605C64.8594 10.8273 64.7019 10.8108 64.5749 10.8108C64.2544 10.8108 63.9644 10.8798 63.7047 11.018C63.4478 11.1561 63.2461 11.3481 63.0997 11.5939C62.9533 11.837 62.8801 12.1105 62.8801 12.4144V16.5H62.0804V10.1354Z" fill="#417AFF"/>
</svg>
