<svg width="188" height="121" viewBox="0 0 188 121" fill="none" xmlns="http://www.w3.org/2000/svg">
<mask id="path-1-outside-1_201_618" maskUnits="userSpaceOnUse" x="2" y="-0.119995" width="186" height="107" fill="black">
<rect fill="white" x="2" y="-0.119995" width="186" height="107"/>
<path d="M44.7691 38.6227L36.938 10.8962L27.9074 43.0675H22.0517L8.64702 0.242996H15.2083L25.156 31.991L33.9748 0.242996H39.9011L48.9316 31.991L58.6677 0.242996H65.2289L53.4469 37.8467H66.005V43.0675H50.6954C47.5912 43.0675 45.6158 41.5859 44.7691 38.6227ZM79.4516 37.8467H101.746V43.0675H64.9181V37.8467H70.9149C69.9977 36.859 69.5039 35.5185 69.5039 32.8376V0.242996H98.9237V5.46377H75.5713V18.6568H94.9728V23.7365H75.5713V33.1198C75.5713 36.4357 76.7001 37.8467 79.4516 37.8467ZM103.563 37.8467L117.674 0.242996H123.741L137.851 37.8467H140.532V43.0675H135.946C134.112 43.0675 132.983 42.2208 132.348 40.5276L120.707 8.21526L114.076 26.6291H123.671L125.293 31.8498H112.171L109.066 40.5276C108.432 42.2208 107.303 43.0675 105.468 43.0675H100.883V37.8467H103.563ZM140.801 43.0675H139.672V37.8467L140.589 37.7761C142.917 37.5645 144.258 35.8007 144.258 32.6965V0.242996H161.966C170.644 0.242996 175.794 4.61716 175.794 12.0956C175.794 18.939 171.843 23.4543 165.141 24.3009C165.705 24.6536 165.987 25.0064 166.27 25.5708L170.855 34.3191C172.266 37.0001 173.395 37.8467 175.159 37.8467H180.027V43.0675H175.23C170.714 43.0675 168.316 41.7975 166.27 37.9172L160.414 26.9818C159.426 25.1475 158.721 24.7242 157.168 24.7242H154.276V19.5034H161.895C166.834 19.5034 169.868 16.8225 169.868 12.2367C169.868 7.93306 166.411 5.46377 161.402 5.46377H150.325V32.6965C150.325 38.9755 147.221 43.0675 140.801 43.0675ZM27.1377 100.847H38.4964V106.067H26.4322C19.7299 106.067 16.3434 102.61 16.3434 95.9081V68.4638H2.86818V63.243H35.8861V68.4638H22.4108V95.2732C22.4108 98.9418 24.0335 100.847 27.1377 100.847ZM38.109 106.067H36.9801V100.847L37.8973 100.776C40.2255 100.564 41.566 98.8007 41.566 95.6965V63.243H59.2743C67.952 63.243 73.1023 67.6172 73.1023 75.0956C73.1023 81.939 69.1514 86.4543 62.4491 87.3009C63.0135 87.6536 63.2957 88.0064 63.5779 88.5708L68.1637 97.3191C69.5747 100 70.7035 100.847 72.4673 100.847H77.3353V106.067H72.5378C68.0226 106.067 65.6239 104.798 63.5779 100.917L57.7221 89.9818C56.7344 88.1475 56.0289 87.7242 54.4768 87.7242H51.5842V82.5034H59.2037C64.1423 82.5034 67.176 79.8225 67.176 75.2367C67.176 70.9331 63.719 68.4638 58.7099 68.4638H47.6333V95.6965C47.6333 101.975 44.5291 106.067 38.109 106.067ZM75.6945 100.847L89.8047 63.243H95.872L109.982 100.847H112.663V106.067H108.077C106.243 106.067 105.114 105.221 104.479 103.528L92.8383 71.2153L86.2066 89.6291H95.8015L97.4242 94.8498H84.3017L81.1974 103.528C80.5625 105.221 79.4337 106.067 77.5993 106.067H73.0135V100.847H75.6945ZM138.271 100.847H148.854V106.067H111.321V100.847H123.103C118.023 97.3191 115.483 91.2517 115.483 84.3377C115.483 71.7091 124.443 63.5252 138.13 63.243C142.504 63.1724 144.409 63.243 146.032 63.243V68.4638C144.338 68.4638 142.363 68.3932 138.271 68.4638C128.182 68.6754 121.55 74.8134 121.55 84.3377C121.55 94.2854 128.323 100.847 138.271 100.847ZM149.861 106.067H148.732V100.847L149.649 100.776C151.977 100.564 153.318 98.8007 153.318 95.6965V63.243H159.385V80.3869H164.182C166.228 80.3869 167.146 79.9636 168.274 78.1998L178.081 63.243H185.418L173.425 81.3041C172.86 82.1507 172.225 82.7856 171.379 83.2089C172.084 83.5617 172.649 84.4789 173.566 86.1015L180.409 97.9541C181.609 100.071 182.385 100.847 183.372 100.847H187.323V106.067H183.09C179.422 106.067 177.517 104.868 175.682 101.623L168.345 88.7825C167.146 86.6659 166.44 86.1721 164.112 86.1721H159.385V95.6965C159.385 101.975 156.281 106.067 149.861 106.067Z"/>
</mask>
<path d="M44.7691 38.6227L36.938 10.8962L27.9074 43.0675H22.0517L8.64702 0.242996H15.2083L25.156 31.991L33.9748 0.242996H39.9011L48.9316 31.991L58.6677 0.242996H65.2289L53.4469 37.8467H66.005V43.0675H50.6954C47.5912 43.0675 45.6158 41.5859 44.7691 38.6227ZM79.4516 37.8467H101.746V43.0675H64.9181V37.8467H70.9149C69.9977 36.859 69.5039 35.5185 69.5039 32.8376V0.242996H98.9237V5.46377H75.5713V18.6568H94.9728V23.7365H75.5713V33.1198C75.5713 36.4357 76.7001 37.8467 79.4516 37.8467ZM103.563 37.8467L117.674 0.242996H123.741L137.851 37.8467H140.532V43.0675H135.946C134.112 43.0675 132.983 42.2208 132.348 40.5276L120.707 8.21526L114.076 26.6291H123.671L125.293 31.8498H112.171L109.066 40.5276C108.432 42.2208 107.303 43.0675 105.468 43.0675H100.883V37.8467H103.563ZM140.801 43.0675H139.672V37.8467L140.589 37.7761C142.917 37.5645 144.258 35.8007 144.258 32.6965V0.242996H161.966C170.644 0.242996 175.794 4.61716 175.794 12.0956C175.794 18.939 171.843 23.4543 165.141 24.3009C165.705 24.6536 165.987 25.0064 166.27 25.5708L170.855 34.3191C172.266 37.0001 173.395 37.8467 175.159 37.8467H180.027V43.0675H175.23C170.714 43.0675 168.316 41.7975 166.27 37.9172L160.414 26.9818C159.426 25.1475 158.721 24.7242 157.168 24.7242H154.276V19.5034H161.895C166.834 19.5034 169.868 16.8225 169.868 12.2367C169.868 7.93306 166.411 5.46377 161.402 5.46377H150.325V32.6965C150.325 38.9755 147.221 43.0675 140.801 43.0675ZM27.1377 100.847H38.4964V106.067H26.4322C19.7299 106.067 16.3434 102.61 16.3434 95.9081V68.4638H2.86818V63.243H35.8861V68.4638H22.4108V95.2732C22.4108 98.9418 24.0335 100.847 27.1377 100.847ZM38.109 106.067H36.9801V100.847L37.8973 100.776C40.2255 100.564 41.566 98.8007 41.566 95.6965V63.243H59.2743C67.952 63.243 73.1023 67.6172 73.1023 75.0956C73.1023 81.939 69.1514 86.4543 62.4491 87.3009C63.0135 87.6536 63.2957 88.0064 63.5779 88.5708L68.1637 97.3191C69.5747 100 70.7035 100.847 72.4673 100.847H77.3353V106.067H72.5378C68.0226 106.067 65.6239 104.798 63.5779 100.917L57.7221 89.9818C56.7344 88.1475 56.0289 87.7242 54.4768 87.7242H51.5842V82.5034H59.2037C64.1423 82.5034 67.176 79.8225 67.176 75.2367C67.176 70.9331 63.719 68.4638 58.7099 68.4638H47.6333V95.6965C47.6333 101.975 44.5291 106.067 38.109 106.067ZM75.6945 100.847L89.8047 63.243H95.872L109.982 100.847H112.663V106.067H108.077C106.243 106.067 105.114 105.221 104.479 103.528L92.8383 71.2153L86.2066 89.6291H95.8015L97.4242 94.8498H84.3017L81.1974 103.528C80.5625 105.221 79.4337 106.067 77.5993 106.067H73.0135V100.847H75.6945ZM138.271 100.847H148.854V106.067H111.321V100.847H123.103C118.023 97.3191 115.483 91.2517 115.483 84.3377C115.483 71.7091 124.443 63.5252 138.13 63.243C142.504 63.1724 144.409 63.243 146.032 63.243V68.4638C144.338 68.4638 142.363 68.3932 138.271 68.4638C128.182 68.6754 121.55 74.8134 121.55 84.3377C121.55 94.2854 128.323 100.847 138.271 100.847ZM149.861 106.067H148.732V100.847L149.649 100.776C151.977 100.564 153.318 98.8007 153.318 95.6965V63.243H159.385V80.3869H164.182C166.228 80.3869 167.146 79.9636 168.274 78.1998L178.081 63.243H185.418L173.425 81.3041C172.86 82.1507 172.225 82.7856 171.379 83.2089C172.084 83.5617 172.649 84.4789 173.566 86.1015L180.409 97.9541C181.609 100.071 182.385 100.847 183.372 100.847H187.323V106.067H183.09C179.422 106.067 177.517 104.868 175.682 101.623L168.345 88.7825C167.146 86.6659 166.44 86.1721 164.112 86.1721H159.385V95.6965C159.385 101.975 156.281 106.067 149.861 106.067Z" fill="#CDDDFF"/>
<path d="M44.7691 38.6227L44.5353 38.6888L44.5355 38.6895L44.7691 38.6227ZM36.938 10.8962L37.1718 10.8302L36.9373 9.99963L36.704 10.8305L36.938 10.8962ZM27.9074 43.0675V43.3105H28.0916L28.1414 43.1331L27.9074 43.0675ZM22.0517 43.0675L21.8198 43.14L21.8731 43.3105H22.0517V43.0675ZM8.64702 0.242996V-3.8147e-06H8.31633L8.41512 0.315586L8.64702 0.242996ZM15.2083 0.242996L15.4402 0.170338L15.3868 -3.8147e-06H15.2083V0.242996ZM25.156 31.9909L24.9241 32.0636L25.17 32.8484L25.3901 32.056L25.156 31.9909ZM33.9748 0.242996V-3.8147e-06H33.7901L33.7407 0.177959L33.9748 0.242996ZM39.9011 0.242996L40.1348 0.176514L40.0846 -3.8147e-06H39.9011V0.242996ZM48.9316 31.9909L48.6979 32.0574L48.9229 32.8483L49.164 32.0622L48.9316 31.9909ZM58.6677 0.242996V-3.8147e-06H58.488L58.4354 0.171749L58.6677 0.242996ZM65.2289 0.242996L65.4608 0.315651L65.5597 -3.8147e-06H65.2289V0.242996ZM53.4469 37.8467L53.215 37.774L53.1161 38.0897H53.4469V37.8467ZM66.005 37.8467H66.248V37.6037H66.005V37.8467ZM66.005 43.0675V43.3105H66.248V43.0675H66.005ZM44.7691 38.6227L45.003 38.5567L37.1718 10.8302L36.938 10.8962L36.7041 10.9622L44.5353 38.6888L44.7691 38.6227ZM36.938 10.8962L36.704 10.8305L27.6735 43.0018L27.9074 43.0675L28.1414 43.1331L37.1719 10.9619L36.938 10.8962ZM27.9074 43.0675V42.8245H22.0517V43.0675V43.3105H27.9074V43.0675ZM22.0517 43.0675L22.2836 42.9949L8.87893 0.170406L8.64702 0.242996L8.41512 0.315586L21.8198 43.14L22.0517 43.0675ZM8.64702 0.242996V0.485996H15.2083V0.242996V-3.8147e-06H8.64702V0.242996ZM15.2083 0.242996L14.9764 0.315651L24.9241 32.0636L25.156 31.9909L25.3878 31.9183L15.4402 0.170338L15.2083 0.242996ZM25.156 31.9909L25.3901 32.056L34.209 0.308033L33.9748 0.242996L33.7407 0.177959L24.9218 31.9259L25.156 31.9909ZM33.9748 0.242996V0.485996H39.9011V0.242996V-3.8147e-06H33.9748V0.242996ZM39.9011 0.242996L39.6674 0.309479L48.6979 32.0574L48.9316 31.9909L49.1654 31.9245L40.1348 0.176514L39.9011 0.242996ZM48.9316 31.9909L49.164 32.0622L58.9 0.31424L58.6677 0.242996L58.4354 0.171749L48.6993 31.9197L48.9316 31.9909ZM58.6677 0.242996V0.485996H65.2289V0.242996V-3.8147e-06H58.6677V0.242996ZM65.2289 0.242996L64.997 0.170341L53.215 37.774L53.4469 37.8467L53.6788 37.9193L65.4608 0.315651L65.2289 0.242996ZM53.4469 37.8467V38.0897H66.005V37.8467V37.6037H53.4469V37.8467ZM66.005 37.8467H65.762V43.0675H66.005H66.248V37.8467H66.005ZM66.005 43.0675V42.8245H50.6954V43.0675V43.3105H66.005V43.0675ZM50.6954 43.0675V42.8245C49.1822 42.8245 47.9673 42.4638 47.0315 41.7619C46.0958 41.0601 45.4152 39.9994 45.0028 38.556L44.7691 38.6227L44.5355 38.6895C44.9697 40.2092 45.7001 41.3709 46.7399 42.1507C47.7794 42.9303 49.1044 43.3105 50.6954 43.3105V43.0675ZM101.746 37.8467H101.989V37.6037H101.746V37.8467ZM101.746 43.0675V43.3105H101.989V43.0675H101.746ZM64.9181 43.0675H64.6751V43.3105H64.9181V43.0675ZM64.9181 37.8467V37.6037H64.6751V37.8467H64.9181ZM70.9149 37.8467V38.0897H71.4722L71.093 37.6813L70.9149 37.8467ZM69.5039 0.242996V-3.8147e-06H69.2609V0.242996H69.5039ZM98.9237 0.242996H99.1667V-3.8147e-06H98.9237V0.242996ZM98.9237 5.46377V5.70677H99.1667V5.46377H98.9237ZM75.5713 5.46377V5.22077H75.3283V5.46377H75.5713ZM75.5713 18.6568H75.3283V18.8998H75.5713V18.6568ZM94.9728 18.6568H95.2158V18.4138H94.9728V18.6568ZM94.9728 23.7365V23.9795H95.2158V23.7365H94.9728ZM75.5713 23.7365V23.4935H75.3283V23.7365H75.5713ZM79.4516 37.8467V38.0897H101.746V37.8467V37.6037H79.4516V37.8467ZM101.746 37.8467H101.503V43.0675H101.746H101.989V37.8467H101.746ZM101.746 43.0675V42.8245H64.9181V43.0675V43.3105H101.746V43.0675ZM64.9181 43.0675H65.1611V37.8467H64.9181H64.6751V43.0675H64.9181ZM64.9181 37.8467V38.0897H70.9149V37.8467V37.6037H64.9181V37.8467ZM70.9149 37.8467L71.093 37.6813C70.2351 36.7574 69.7469 35.489 69.7469 32.8376H69.5039H69.2609C69.2609 35.548 69.7604 36.9605 70.7368 38.012L70.9149 37.8467ZM69.5039 32.8376H69.7469V0.242996H69.5039H69.2609V32.8376H69.5039ZM69.5039 0.242996V0.485996H98.9237V0.242996V-3.8147e-06H69.5039V0.242996ZM98.9237 0.242996H98.6806V5.46377H98.9237H99.1667V0.242996H98.9237ZM98.9237 5.46377V5.22077H75.5713V5.46377V5.70677H98.9237V5.46377ZM75.5713 5.46377H75.3283V18.6568H75.5713H75.8143V5.46377H75.5713ZM75.5713 18.6568V18.8998H94.9728V18.6568V18.4138H75.5713V18.6568ZM94.9728 18.6568H94.7298V23.7365H94.9728H95.2158V18.6568H94.9728ZM94.9728 23.7365V23.4935H75.5713V23.7365V23.9795H94.9728V23.7365ZM75.5713 23.7365H75.3283V33.1198H75.5713H75.8143V23.7365H75.5713ZM75.5713 33.1198H75.3283C75.3283 34.7952 75.6114 36.0471 76.2914 36.8803C76.9813 37.7257 78.0363 38.0897 79.4516 38.0897V37.8467V37.6037C78.1154 37.6037 77.2302 37.2621 76.6679 36.573C76.0956 35.8718 75.8143 34.7603 75.8143 33.1198H75.5713ZM103.563 37.8467V38.0897H103.732L103.791 37.9321L103.563 37.8467ZM117.674 0.242996V-3.8147e-06H117.505L117.446 0.157627L117.674 0.242996ZM123.741 0.242996L123.969 0.157627L123.909 -3.8147e-06H123.741V0.242996ZM137.851 37.8467L137.624 37.9321L137.683 38.0897H137.851V37.8467ZM140.532 37.8467H140.775V37.6037H140.532V37.8467ZM140.532 43.0675V43.3105H140.775V43.0675H140.532ZM132.348 40.5276L132.12 40.61L132.121 40.6129L132.348 40.5276ZM120.707 8.21526L120.936 8.1329L120.707 7.49822L120.479 8.13292L120.707 8.21526ZM114.076 26.6291L113.847 26.5467L113.73 26.8721H114.076V26.6291ZM123.671 26.6291L123.903 26.557L123.849 26.3861H123.671V26.6291ZM125.293 31.8498V32.0928H125.623L125.525 31.7777L125.293 31.8498ZM112.171 31.8498V31.6068H112L111.942 31.768L112.171 31.8498ZM109.066 40.5276L109.294 40.613L109.295 40.6095L109.066 40.5276ZM100.883 43.0675H100.64V43.3105H100.883V43.0675ZM100.883 37.8467V37.6037H100.64V37.8467H100.883ZM103.563 37.8467L103.791 37.9321L117.901 0.328365L117.674 0.242996L117.446 0.157627L103.336 37.7613L103.563 37.8467ZM117.674 0.242996V0.485996H123.741V0.242996V-3.8147e-06H117.674V0.242996ZM123.741 0.242996L123.514 0.328365L137.624 37.9321L137.851 37.8467L138.079 37.7613L123.969 0.157627L123.741 0.242996ZM137.851 37.8467V38.0897H140.532V37.8467V37.6037H137.851V37.8467ZM140.532 37.8467H140.289V43.0675H140.532H140.775V37.8467H140.532ZM140.532 43.0675V42.8245H135.946V43.0675V43.3105H140.532V43.0675ZM135.946 43.0675V42.8245C135.067 42.8245 134.38 42.6222 133.839 42.235C133.298 41.8471 132.881 41.2573 132.576 40.4423L132.348 40.5276L132.121 40.6129C132.45 41.4912 132.916 42.1713 133.556 42.63C134.197 43.0894 134.991 43.3105 135.946 43.3105V43.0675ZM132.348 40.5276L132.577 40.4453L120.936 8.1329L120.707 8.21526L120.479 8.29762L132.12 40.61L132.348 40.5276ZM120.707 8.21526L120.479 8.13292L113.847 26.5467L114.076 26.6291L114.304 26.7114L120.936 8.2976L120.707 8.21526ZM114.076 26.6291V26.8721H123.671V26.6291V26.3861H114.076V26.6291ZM123.671 26.6291L123.438 26.7012L125.061 31.922L125.293 31.8498L125.525 31.7777L123.903 26.557L123.671 26.6291ZM125.293 31.8498V31.6068H112.171V31.8498V32.0928H125.293V31.8498ZM112.171 31.8498L111.942 31.768L108.838 40.4458L109.066 40.5276L109.295 40.6095L112.4 31.9317L112.171 31.8498ZM109.066 40.5276L108.839 40.4423C108.533 41.2573 108.117 41.8471 107.576 42.235C107.035 42.6222 106.347 42.8245 105.468 42.8245V43.0675V43.3105C106.424 43.3105 107.217 43.0894 107.859 42.63C108.499 42.1713 108.965 41.4912 109.294 40.6129L109.066 40.5276ZM105.468 43.0675V42.8245H100.883V43.0675V43.3105H105.468V43.0675ZM100.883 43.0675H101.126V37.8467H100.883H100.64V43.0675H100.883ZM100.883 37.8467V38.0897H103.563V37.8467V37.6037H100.883V37.8467ZM139.672 43.0675H139.429V43.3105H139.672V43.0675ZM139.672 37.8467L139.653 37.6044L139.429 37.6217V37.8467H139.672ZM140.589 37.7761L140.608 38.0184L140.611 38.0181L140.589 37.7761ZM144.258 0.242996V-3.8147e-06H144.015V0.242996H144.258ZM165.141 24.3009L165.11 24.0598L164.433 24.1453L165.012 24.507L165.141 24.3009ZM166.27 25.5708L166.052 25.6795L166.054 25.6836L166.27 25.5708ZM170.855 34.3191L170.64 34.432L170.64 34.4323L170.855 34.3191ZM180.027 37.8467H180.27V37.6037H180.027V37.8467ZM180.027 43.0675V43.3105H180.27V43.0675H180.027ZM166.27 37.9172L166.484 37.8039L166.484 37.8025L166.27 37.9172ZM160.414 26.9818L160.628 26.8671L160.628 26.8666L160.414 26.9818ZM154.276 24.7242H154.033V24.9672H154.276V24.7242ZM154.276 19.5034V19.2604H154.033V19.5034H154.276ZM150.325 5.46377V5.22077H150.082V5.46377H150.325ZM140.801 43.0675V42.8245H139.672V43.0675V43.3105H140.801V43.0675ZM139.672 43.0675H139.915V37.8467H139.672H139.429V43.0675H139.672ZM139.672 37.8467L139.69 38.089L140.608 38.0184L140.589 37.7761L140.57 37.5338L139.653 37.6044L139.672 37.8467ZM140.589 37.7761L140.611 38.0181C141.837 37.9067 142.821 37.3823 143.492 36.4645C144.159 35.5538 144.501 34.2802 144.501 32.6965H144.258H144.015C144.015 34.217 143.686 35.3774 143.1 36.1775C142.52 36.9706 141.669 37.4339 140.567 37.5341L140.589 37.7761ZM144.258 32.6965H144.501V0.242996H144.258H144.015V32.6965H144.258ZM144.258 0.242996V0.485996H161.966V0.242996V-3.8147e-06H144.258V0.242996ZM161.966 0.242996V0.485996C166.267 0.485996 169.661 1.57002 171.976 3.54957C174.286 5.5247 175.551 8.4158 175.551 12.0956H175.794H176.037C176.037 8.29692 174.727 5.26174 172.292 3.18019C169.863 1.10305 166.343 -3.8147e-06 161.966 -3.8147e-06V0.242996ZM175.794 12.0956H175.551C175.551 15.4699 174.578 18.2493 172.798 20.2872C171.018 22.3249 168.413 23.6426 165.11 24.0598L165.141 24.3009L165.171 24.542C168.571 24.1126 171.292 22.7493 173.164 20.6069C175.035 18.4647 176.037 15.5647 176.037 12.0956H175.794ZM165.141 24.3009L165.012 24.507C165.532 24.8322 165.787 25.1481 166.052 25.6795L166.27 25.5708L166.487 25.4621C166.188 24.8647 165.878 24.4751 165.27 24.0948L165.141 24.3009ZM166.27 25.5708L166.054 25.6836L170.64 34.432L170.855 34.3191L171.071 34.2063L166.485 25.458L166.27 25.5708ZM170.855 34.3191L170.64 34.4323C171.351 35.782 172.004 36.6993 172.722 37.2775C173.452 37.8646 174.231 38.0897 175.159 38.0897V37.8467V37.6037C174.323 37.6037 173.656 37.4054 173.027 36.899C172.387 36.3837 171.771 35.5372 171.07 34.206L170.855 34.3191ZM175.159 37.8467V38.0897H180.027V37.8467V37.6037H175.159V37.8467ZM180.027 37.8467H179.784V43.0675H180.027H180.27V37.8467H180.027ZM180.027 43.0675V42.8245H175.23V43.0675V43.3105H180.027V43.0675ZM175.23 43.0675V42.8245C172.992 42.8245 171.311 42.5093 169.943 41.7359C168.577 40.964 167.494 39.7193 166.484 37.8039L166.27 37.9172L166.055 38.0306C167.091 39.9955 168.23 41.3259 169.704 42.159C171.175 42.9907 172.952 43.3105 175.23 43.3105V43.0675ZM166.27 37.9172L166.484 37.8025L160.628 26.8671L160.414 26.9818L160.2 27.0965L166.055 38.0319L166.27 37.9172ZM160.414 26.9818L160.628 26.8666C160.13 25.9415 159.684 25.3334 159.139 24.9641C158.587 24.5893 157.965 24.4812 157.168 24.4812V24.7242V24.9672C157.924 24.9672 158.431 25.0708 158.866 25.3662C159.31 25.6671 159.71 26.1878 160.2 27.097L160.414 26.9818ZM157.168 24.7242V24.4812H154.276V24.7242V24.9672H157.168V24.7242ZM154.276 24.7242H154.519V19.5034H154.276H154.033V24.7242H154.276ZM154.276 19.5034V19.7464H161.895V19.5034V19.2604H154.276V19.5034ZM161.895 19.5034V19.7464C164.407 19.7464 166.464 19.0645 167.896 17.77C169.332 16.4726 170.111 14.5856 170.111 12.2367H169.868H169.625C169.625 14.4736 168.887 16.2199 167.571 17.4095C166.251 18.6019 164.322 19.2604 161.895 19.2604V19.5034ZM169.868 12.2367H170.111C170.111 10.0124 169.214 8.24724 167.662 7.04431C166.117 5.84683 163.943 5.22077 161.402 5.22077V5.46377V5.70677C163.869 5.70677 165.928 6.31535 167.364 7.42842C168.793 8.53603 169.625 10.1573 169.625 12.2367H169.868ZM161.402 5.46377V5.22077H150.325V5.46377V5.70677H161.402V5.46377ZM150.325 5.46377H150.082V32.6965H150.325H150.568V5.46377H150.325ZM150.325 32.6965H150.082C150.082 35.7993 149.315 38.3274 147.787 40.0768C146.264 41.8208 143.957 42.8245 140.801 42.8245V43.0675V43.3105C144.065 43.3105 146.519 42.2681 148.153 40.3964C149.783 38.5301 150.568 35.8726 150.568 32.6965H150.325ZM38.4964 100.847H38.7394V100.604H38.4964V100.847ZM38.4964 106.067V106.31H38.7394V106.067H38.4964ZM16.3434 68.4638H16.5864V68.2208H16.3434V68.4638ZM2.86818 68.4638H2.62518V68.7068H2.86818V68.4638ZM2.86818 63.243V63H2.62518V63.243H2.86818ZM35.8861 63.243H36.1291V63H35.8861V63.243ZM35.8861 68.4638V68.7068H36.1291V68.4638H35.8861ZM22.4108 68.4638V68.2208H22.1678V68.4638H22.4108ZM27.1377 100.847V101.09H38.4964V100.847V100.604H27.1377V100.847ZM38.4964 100.847H38.2534V106.067H38.4964H38.7394V100.847H38.4964ZM38.4964 106.067V105.824H26.4322V106.067V106.31H38.4964V106.067ZM26.4322 106.067V105.824C23.1204 105.824 20.6707 104.971 19.0472 103.33C17.4232 101.689 16.5864 99.2212 16.5864 95.9081H16.3434H16.1004C16.1004 99.2974 16.9569 101.909 18.7017 103.672C20.447 105.436 23.0417 106.31 26.4322 106.31V106.067ZM16.3434 95.9081H16.5864V68.4638H16.3434H16.1004V95.9081H16.3434ZM16.3434 68.4638V68.2208H2.86818V68.4638V68.7068H16.3434V68.4638ZM2.86818 68.4638H3.11118V63.243H2.86818H2.62518V68.4638H2.86818ZM2.86818 63.243V63.486H35.8861V63.243V63H2.86818V63.243ZM35.8861 63.243H35.6431V68.4638H35.8861H36.1291V63.243H35.8861ZM35.8861 68.4638V68.2208H22.4108V68.4638V68.7068H35.8861V68.4638ZM22.4108 68.4638H22.1678V95.2732H22.4108H22.6538V68.4638H22.4108ZM22.4108 95.2732H22.1678C22.1678 97.1384 22.5797 98.5974 23.4249 99.5929C24.2762 100.596 25.534 101.09 27.1377 101.09V100.847V100.604C25.6372 100.604 24.5316 100.145 23.7954 99.2784C23.0533 98.4043 22.6538 97.0766 22.6538 95.2732H22.4108ZM36.9801 106.067H36.7371V106.31H36.9801V106.067ZM36.9801 100.847L36.9615 100.604L36.7371 100.622V100.847H36.9801ZM37.8973 100.776L37.9159 101.018L37.9193 101.018L37.8973 100.776ZM41.566 63.243V63H41.323V63.243H41.566ZM62.4491 87.3009L62.4186 87.0598L61.7416 87.1453L62.3203 87.507L62.4491 87.3009ZM63.5779 88.5708L63.3605 88.6795L63.3626 88.6836L63.5779 88.5708ZM68.1637 97.3191L67.9485 97.432L67.9487 97.4323L68.1637 97.3191ZM77.3353 100.847H77.5783V100.604H77.3353V100.847ZM77.3353 106.067V106.31H77.5783V106.067H77.3353ZM63.5779 100.917L63.7928 100.804L63.7921 100.803L63.5779 100.917ZM57.7221 89.9818L57.9364 89.8671L57.9361 89.8666L57.7221 89.9818ZM51.5842 87.7242H51.3412V87.9672H51.5842V87.7242ZM51.5842 82.5034V82.2604H51.3412V82.5034H51.5842ZM47.6333 68.4638V68.2208H47.3903V68.4638H47.6333ZM38.109 106.067V105.824H36.9801V106.067V106.31H38.109V106.067ZM36.9801 106.067H37.2231V100.847H36.9801H36.7371V106.067H36.9801ZM36.9801 100.847L36.9988 101.089L37.9159 101.018L37.8973 100.776L37.8787 100.534L36.9615 100.604L36.9801 100.847ZM37.8973 100.776L37.9193 101.018C39.1451 100.907 40.129 100.382 40.8008 99.4645C41.4674 98.5538 41.809 97.2802 41.809 95.6965H41.566H41.323C41.323 97.217 40.9943 98.3774 40.4086 99.1775C39.8281 99.9706 38.9777 100.434 37.8753 100.534L37.8973 100.776ZM41.566 95.6965H41.809V63.243H41.566H41.323V95.6965H41.566ZM41.566 63.243V63.486H59.2743V63.243V63H41.566V63.243ZM59.2743 63.243V63.486C63.5751 63.486 66.9693 64.57 69.2845 66.5496C71.5946 68.5247 72.8593 71.4158 72.8593 75.0956H73.1023H73.3453C73.3453 71.2969 72.0349 68.2617 69.6003 66.1802C67.171 64.1031 63.6512 63 59.2743 63V63.243ZM73.1023 75.0956H72.8593C72.8593 78.4699 71.886 81.2493 70.106 83.2872C68.3263 85.3249 65.7214 86.6426 62.4186 87.0598L62.4491 87.3009L62.4795 87.542C65.8791 87.1126 68.6008 85.7493 70.4721 83.6069C72.3431 81.4647 73.3453 78.5647 73.3453 75.0956H73.1023ZM62.4491 87.3009L62.3203 87.507C62.8407 87.8322 63.0948 88.1481 63.3605 88.6795L63.5779 88.5708L63.7952 88.4621C63.4965 87.8647 63.1863 87.4751 62.5778 87.0948L62.4491 87.3009ZM63.5779 88.5708L63.3626 88.6836L67.9485 97.432L68.1637 97.3191L68.3789 97.2063L63.7931 88.458L63.5779 88.5708ZM68.1637 97.3191L67.9487 97.4323C68.659 98.782 69.3127 99.6993 70.0308 100.278C70.76 100.865 71.5396 101.09 72.4673 101.09V100.847V100.604C71.6313 100.604 70.9646 100.405 70.3356 99.899C69.6956 99.3837 69.0794 98.5372 68.3787 97.206L68.1637 97.3191ZM72.4673 100.847V101.09H77.3353V100.847V100.604H72.4673V100.847ZM77.3353 100.847H77.0923V106.067H77.3353H77.5783V100.847H77.3353ZM77.3353 106.067V105.824H72.5378V106.067V106.31H77.3353V106.067ZM72.5378 106.067V105.824C70.3004 105.824 68.6197 105.509 67.2514 104.736C65.8858 103.964 64.8027 102.719 63.7928 100.804L63.5779 100.917L63.3629 101.031C64.399 102.995 65.5383 104.326 67.0123 105.159C68.4838 105.991 70.26 106.31 72.5378 106.31V106.067ZM63.5779 100.917L63.7921 100.803L57.9364 89.8671L57.7221 89.9818L57.5079 90.0965L63.3637 101.032L63.5779 100.917ZM57.7221 89.9818L57.9361 89.8666C57.4379 88.9415 56.9919 88.3334 56.4476 87.9641C55.8952 87.5893 55.2734 87.4812 54.4768 87.4812V87.7242V87.9672C55.2323 87.9672 55.7393 88.0708 56.1747 88.3662C56.6181 88.6671 57.0186 89.1878 57.5082 90.097L57.7221 89.9818ZM54.4768 87.7242V87.4812H51.5842V87.7242V87.9672H54.4768V87.7242ZM51.5842 87.7242H51.8272V82.5034H51.5842H51.3412V87.7242H51.5842ZM51.5842 82.5034V82.7464H59.2037V82.5034V82.2604H51.5842V82.5034ZM59.2037 82.5034V82.7464C61.7152 82.7464 63.7726 82.0645 65.2047 80.77C66.6402 79.4726 67.419 77.5856 67.419 75.2367H67.176H66.933C66.933 77.4736 66.1949 79.2199 64.8789 80.4095C63.5595 81.6019 61.6308 82.2604 59.2037 82.2604V82.5034ZM67.176 75.2367H67.419C67.419 73.0124 66.5221 71.2472 64.9702 70.0443C63.4254 68.8468 61.2511 68.2208 58.7099 68.2208V68.4638V68.7068C61.1777 68.7068 63.2365 69.3154 64.6725 70.4284C66.1014 71.536 66.933 73.1573 66.933 75.2367H67.176ZM58.7099 68.4638V68.2208H47.6333V68.4638V68.7068H58.7099V68.4638ZM47.6333 68.4638H47.3903V95.6965H47.6333H47.8763V68.4638H47.6333ZM47.6333 95.6965H47.3903C47.3903 98.7993 46.6232 101.327 45.0957 103.077C43.5728 104.821 41.2649 105.824 38.109 105.824V106.067V106.31C41.3732 106.31 43.8274 105.268 45.4617 103.396C47.0914 101.53 47.8763 98.8727 47.8763 95.6965H47.6333ZM75.6945 100.847V101.09H75.8628L75.922 100.932L75.6945 100.847ZM89.8047 63.243V63H89.6363L89.5771 63.1576L89.8047 63.243ZM95.872 63.243L96.0996 63.1576L96.0404 63H95.872V63.243ZM109.982 100.847L109.755 100.932L109.814 101.09H109.982V100.847ZM112.663 100.847H112.906V100.604H112.663V100.847ZM112.663 106.067V106.31H112.906V106.067H112.663ZM104.479 103.528L104.251 103.61L104.252 103.613L104.479 103.528ZM92.8383 71.2153L93.067 71.1329L92.8383 70.4982L92.6097 71.1329L92.8383 71.2153ZM86.2066 89.6291L85.9779 89.5467L85.8608 89.8721H86.2066V89.6291ZM95.8015 89.6291L96.0335 89.557L95.9804 89.3861H95.8015V89.6291ZM97.4242 94.8499V95.0928H97.7542L97.6562 94.7777L97.4242 94.8499ZM84.3017 94.8499V94.6068H84.1305L84.0729 94.768L84.3017 94.8499ZM81.1974 103.528L81.425 103.613L81.4262 103.609L81.1974 103.528ZM73.0135 106.067H72.7705V106.31H73.0135V106.067ZM73.0135 100.847V100.604H72.7705V100.847H73.0135ZM75.6945 100.847L75.922 100.932L90.0322 63.3284L89.8047 63.243L89.5771 63.1576L75.4669 100.761L75.6945 100.847ZM89.8047 63.243V63.486H95.872V63.243V63H89.8047V63.243ZM95.872 63.243L95.6445 63.3284L109.755 100.932L109.982 100.847L110.21 100.761L96.0996 63.1576L95.872 63.243ZM109.982 100.847V101.09H112.663V100.847V100.604H109.982V100.847ZM112.663 100.847H112.42V106.067H112.663H112.906V100.847H112.663ZM112.663 106.067V105.824H108.077V106.067V106.31H112.663V106.067ZM108.077 106.067V105.824C107.198 105.824 106.511 105.622 105.97 105.235C105.429 104.847 105.012 104.257 104.707 103.442L104.479 103.528L104.252 103.613C104.581 104.491 105.047 105.171 105.687 105.63C106.328 106.089 107.122 106.31 108.077 106.31V106.067ZM104.479 103.528L104.708 103.445L93.067 71.1329L92.8383 71.2153L92.6097 71.2976L104.251 103.61L104.479 103.528ZM92.8383 71.2153L92.6097 71.1329L85.9779 89.5467L86.2066 89.6291L86.4352 89.7114L93.067 71.2976L92.8383 71.2153ZM86.2066 89.6291V89.8721H95.8015V89.6291V89.3861H86.2066V89.6291ZM95.8015 89.6291L95.5694 89.7012L97.1921 94.922L97.4242 94.8499L97.6562 94.7777L96.0335 89.557L95.8015 89.6291ZM97.4242 94.8499V94.6068H84.3017V94.8499V95.0928H97.4242V94.8499ZM84.3017 94.8499L84.0729 94.768L80.9686 103.446L81.1974 103.528L81.4262 103.609L84.5305 94.9317L84.3017 94.8499ZM81.1974 103.528L80.9699 103.442C80.6643 104.257 80.2481 104.847 79.7066 105.235C79.1662 105.622 78.4782 105.824 77.5993 105.824V106.067V106.31C78.5547 106.31 79.3484 106.089 79.9897 105.63C80.63 105.171 81.0956 104.491 81.425 103.613L81.1974 103.528ZM77.5993 106.067V105.824H73.0135V106.067V106.31H77.5993V106.067ZM73.0135 106.067H73.2565V100.847H73.0135H72.7705V106.067H73.0135ZM73.0135 100.847V101.09H75.6945V100.847V100.604H73.0135V100.847ZM148.854 100.847H149.097V100.604H148.854V100.847ZM148.854 106.067V106.31H149.097V106.067H148.854ZM111.321 106.067H111.078V106.31H111.321V106.067ZM111.321 100.847V100.604H111.078V100.847H111.321ZM123.103 100.847V101.09H123.878L123.241 100.647L123.103 100.847ZM138.13 63.243L138.126 63L138.125 63L138.13 63.243ZM146.032 63.243H146.275V63H146.032V63.243ZM146.032 68.4638V68.7068H146.275V68.4638H146.032ZM138.271 68.4638L138.267 68.2208L138.266 68.2208L138.271 68.4638ZM138.271 100.847V101.09H148.854V100.847V100.604H138.271V100.847ZM148.854 100.847H148.611V106.067H148.854H149.097V100.847H148.854ZM148.854 106.067V105.824H111.321V106.067V106.31H148.854V106.067ZM111.321 106.067H111.564V100.847H111.321H111.078V106.067H111.321ZM111.321 100.847V101.09H123.103V100.847V100.604H111.321V100.847ZM123.103 100.847L123.241 100.647C118.244 97.1766 115.726 91.1949 115.726 84.3377H115.483H115.24C115.24 91.3086 117.802 97.4617 122.964 101.046L123.103 100.847ZM115.483 84.3377H115.726C115.726 78.084 117.943 72.948 121.839 69.3387C125.738 65.7273 131.338 63.6261 138.135 63.4859L138.13 63.243L138.125 63C131.235 63.1421 125.512 65.274 121.509 68.9822C117.503 72.6926 115.24 77.9628 115.24 84.3377H115.483ZM138.13 63.243L138.134 63.486C142.506 63.4154 144.401 63.486 146.032 63.486V63.243V63C144.417 63 142.502 62.9295 138.126 63L138.13 63.243ZM146.032 63.243H145.789V68.4638H146.032H146.275V63.243H146.032ZM146.032 68.4638V68.2208C144.347 68.2208 142.361 68.1502 138.267 68.2208L138.271 68.4638L138.275 68.7067C142.365 68.6362 144.33 68.7068 146.032 68.7068V68.4638ZM138.271 68.4638L138.266 68.2208C133.174 68.3277 128.932 69.931 125.961 72.7317C122.988 75.5341 121.307 79.5164 121.307 84.3377H121.55H121.793C121.793 79.6347 123.429 75.7858 126.294 73.0853C129.161 70.3829 133.279 68.8115 138.276 68.7067L138.271 68.4638ZM121.55 84.3377H121.307C121.307 89.3684 123.021 93.561 126.01 96.496C128.998 99.4305 133.243 101.09 138.271 101.09V100.847V100.604C133.351 100.604 129.236 98.9822 126.351 96.1492C123.466 93.3167 121.793 89.2548 121.793 84.3377H121.55ZM148.732 106.067H148.489V106.31H148.732V106.067ZM148.732 100.847L148.713 100.604L148.489 100.622V100.847H148.732ZM149.649 100.776L149.668 101.018L149.671 101.018L149.649 100.776ZM153.318 63.243V63H153.075V63.243H153.318ZM159.385 63.243H159.628V63H159.385V63.243ZM159.385 80.3869H159.142V80.6299H159.385V80.3869ZM168.274 78.1998L168.071 78.0666L168.07 78.0688L168.274 78.1998ZM178.081 63.243V63H177.95L177.878 63.1098L178.081 63.243ZM185.418 63.243L185.621 63.3774L185.871 63H185.418V63.243ZM173.425 81.3041L173.627 81.4388L173.627 81.4385L173.425 81.3041ZM171.379 83.2089L171.27 82.9916L170.835 83.2089L171.27 83.4263L171.379 83.2089ZM173.566 86.1015L173.354 86.2211L173.355 86.223L173.566 86.1015ZM180.409 97.9541L180.621 97.8343L180.62 97.8326L180.409 97.9541ZM187.323 100.847H187.566V100.604H187.323V100.847ZM187.323 106.067V106.31H187.566V106.067H187.323ZM175.682 101.623L175.894 101.503L175.893 101.502L175.682 101.623ZM168.345 88.7825L168.134 88.9023L168.134 88.903L168.345 88.7825ZM159.385 86.1721V85.9291H159.142V86.1721H159.385ZM149.861 106.067V105.824H148.732V106.067V106.31H149.861V106.067ZM148.732 106.067H148.975V100.847H148.732H148.489V106.067H148.732ZM148.732 100.847L148.75 101.089L149.668 101.018L149.649 100.776L149.63 100.534L148.713 100.604L148.732 100.847ZM149.649 100.776L149.671 101.018C150.897 100.907 151.881 100.382 152.552 99.4645C153.219 98.5538 153.561 97.2802 153.561 95.6965H153.318H153.075C153.075 97.217 152.746 98.3774 152.16 99.1775C151.58 99.9706 150.729 100.434 149.627 100.534L149.649 100.776ZM153.318 95.6965H153.561V63.243H153.318H153.075V95.6965H153.318ZM153.318 63.243V63.486H159.385V63.243V63H153.318V63.243ZM159.385 63.243H159.142V80.3869H159.385H159.628V63.243H159.385ZM159.385 80.3869V80.6299H164.182V80.3869V80.1439H159.385V80.3869ZM164.182 80.3869V80.6299C165.218 80.6299 166.006 80.5239 166.685 80.1703C167.365 79.8156 167.905 79.2282 168.479 78.3308L168.274 78.1998L168.07 78.0688C167.515 78.9352 167.032 79.4413 166.46 79.7393C165.886 80.0383 165.193 80.1439 164.182 80.1439V80.3869ZM168.274 78.1998L168.478 78.3331L178.284 63.3762L178.081 63.243L177.878 63.1098L168.071 78.0666L168.274 78.1998ZM178.081 63.243V63.486H185.418V63.243V63H178.081V63.243ZM185.418 63.243L185.216 63.1086L173.222 81.1696L173.425 81.3041L173.627 81.4385L185.621 63.3774L185.418 63.243ZM173.425 81.3041L173.222 81.1693C172.675 81.9911 172.069 82.5921 171.27 82.9916L171.379 83.2089L171.487 83.4263C172.382 82.9791 173.046 82.3102 173.627 81.4388L173.425 81.3041ZM171.379 83.2089L171.27 83.4263C171.571 83.5768 171.861 83.8573 172.196 84.3213C172.531 84.7848 172.895 85.4081 173.354 86.2211L173.566 86.1015L173.777 85.982C173.32 85.1723 172.943 84.5256 172.59 84.0367C172.237 83.5483 171.892 83.1938 171.487 82.9916L171.379 83.2089ZM173.566 86.1015L173.355 86.223L180.199 98.0756L180.409 97.9541L180.62 97.8326L173.776 85.98L173.566 86.1015ZM180.409 97.9541L180.198 98.0739C180.799 99.1355 181.307 99.8838 181.8 100.368C182.302 100.86 182.801 101.09 183.372 101.09V100.847V100.604C182.956 100.604 182.574 100.446 182.14 100.021C181.699 99.5872 181.218 98.8892 180.621 97.8343L180.409 97.9541ZM183.372 100.847V101.09H187.323V100.847V100.604H183.372V100.847ZM187.323 100.847H187.08V106.067H187.323H187.566V100.847H187.323ZM187.323 106.067V105.824H183.09V106.067V106.31H187.323V106.067ZM183.09 106.067V105.824C181.282 105.824 179.937 105.529 178.824 104.854C177.71 104.179 176.801 103.107 175.894 101.503L175.682 101.623L175.471 101.742C176.398 103.383 177.359 104.534 178.572 105.27C179.788 106.006 181.23 106.31 183.09 106.31V106.067ZM175.682 101.623L175.893 101.502L168.556 88.6619L168.345 88.7825L168.134 88.903L175.471 101.743L175.682 101.623ZM168.345 88.7825L168.556 88.6627C167.955 87.6021 167.454 86.901 166.781 86.4778C166.103 86.0518 165.287 85.9291 164.112 85.9291V86.1721V86.4151C165.265 86.4151 165.966 86.5393 166.522 86.8893C167.084 87.2422 167.535 87.8463 168.134 88.9023L168.345 88.7825ZM164.112 86.1721V85.9291H159.385V86.1721V86.4151H164.112V86.1721ZM159.385 86.1721H159.142V95.6965H159.385H159.628V86.1721H159.385ZM159.385 95.6965H159.142C159.142 98.7993 158.375 101.327 156.847 103.077C155.324 104.821 153.017 105.824 149.861 105.824V106.067V106.31C153.125 106.31 155.579 105.268 157.213 103.396C158.843 101.53 159.628 98.8727 159.628 95.6965H159.385Z" fill="white" mask="url(#path-1-outside-1_201_618)"/>
<rect x="4.85995" y="115.23" width="174.96" height="4.86" fill="url(#paint0_linear_201_618)"/>
<defs>
<linearGradient id="paint0_linear_201_618" x1="4.85995" y1="117.66" x2="179.82" y2="117.66" gradientUnits="userSpaceOnUse">
<stop stop-color="#CDDDFF" stop-opacity="0"/>
<stop offset="0.225962" stop-color="#CDDDFF"/>
<stop offset="0.861768" stop-color="#CDDDFF"/>
<stop offset="0.9999" stop-color="#CDDDFF" stop-opacity="0"/>
</linearGradient>
</defs>
</svg>
