<svg width="80" height="32" viewBox="0 0 80 32" fill="none" xmlns="http://www.w3.org/2000/svg">
<rect x="0.25" y="0.25" width="79.5" height="31.5" rx="15.75" fill="#BC9675"/>
<rect x="0.25" y="0.25" width="79.5" height="31.5" rx="15.75" stroke="#6D4E33" stroke-width="0.5"/>
<circle cx="15" cy="16" r="4" fill="#6D4E33"/>
<path d="M30.0925 11.0994H33.5732C34.2403 11.0994 34.8011 11.2155 35.2555 11.4475C35.7132 11.6763 36.0548 11.9889 36.2804 12.3854C36.506 12.7818 36.6188 13.2297 36.6188 13.7293C36.6188 14.3191 36.4705 14.7799 36.174 15.1119C35.8775 15.4406 35.4876 15.6694 35.0041 15.7983V15.895C35.3264 15.9144 35.6407 16.0239 35.9468 16.2238C36.2562 16.4236 36.5092 16.7088 36.7058 17.0794C36.9056 17.4468 37.0055 17.8771 37.0055 18.3702C37.0055 18.8858 36.8879 19.3402 36.6526 19.7334C36.4206 20.1266 36.0564 20.436 35.5601 20.6616C35.067 20.8872 34.4434 21 33.6892 21H30.0925V11.0994ZM33.6796 19.9075C34.1759 19.9075 34.5836 19.8414 34.9026 19.7093C35.2217 19.5739 35.4553 19.3902 35.6036 19.1581C35.7518 18.9261 35.826 18.6602 35.826 18.3605C35.826 18.0253 35.739 17.7159 35.5649 17.4323C35.3941 17.1487 35.1492 16.9231 34.8301 16.7555C34.5143 16.5879 34.1501 16.5041 33.7376 16.5041H31.3204V19.9075H33.6796ZM33.5249 15.4406C33.8826 15.4406 34.2065 15.3713 34.4965 15.2327C34.7898 15.0909 35.0203 14.8911 35.1878 14.6333C35.3554 14.3755 35.4392 14.0773 35.4392 13.739C35.4392 13.4424 35.3715 13.1782 35.2362 12.9461C35.1008 12.7141 34.8913 12.5304 34.6077 12.395C34.3273 12.2597 33.9793 12.192 33.5635 12.192H31.3204V15.4406H33.5249ZM38.6058 13.5746H39.7467V14.7058H39.824C39.9143 14.4609 40.0545 14.2449 40.2446 14.058C40.4348 13.8679 40.6604 13.7212 40.9214 13.6181C41.1825 13.5117 41.458 13.4586 41.7481 13.4586C41.9737 13.4586 42.1767 13.465 42.3572 13.4779V14.6671C42.2831 14.651 42.1783 14.6349 42.043 14.6188C41.9108 14.5994 41.7803 14.5898 41.6514 14.5898C41.2969 14.5898 40.9778 14.6655 40.6942 14.817C40.4106 14.9652 40.1882 15.1715 40.0271 15.4358C39.8659 15.6968 39.7854 15.9917 39.7854 16.3204V21H38.6058V13.5746ZM46.3038 21.1547C45.6367 21.1547 45.0469 20.9968 44.5345 20.6809C44.0221 20.3619 43.624 19.9123 43.3404 19.3322C43.0601 18.7521 42.9199 18.0833 42.9199 17.326C42.9199 16.5622 43.0601 15.8902 43.3404 15.3101C43.624 14.7267 44.0221 14.2756 44.5345 13.9565C45.0469 13.6374 45.6367 13.4779 46.3038 13.4779C46.971 13.4779 47.5591 13.6374 48.0683 13.9565C48.5808 14.2756 48.9772 14.7267 49.2576 15.3101C49.538 15.8902 49.6781 16.5622 49.6781 17.326C49.6781 18.0833 49.538 18.7521 49.2576 19.3322C48.9772 19.9123 48.5808 20.3619 48.0683 20.6809C47.5591 20.9968 46.971 21.1547 46.3038 21.1547ZM44.0994 17.326C44.0994 17.8352 44.18 18.3009 44.3411 18.7231C44.5055 19.1453 44.752 19.482 45.0808 19.7334C45.4127 19.9848 45.8204 20.1105 46.3038 20.1105C46.784 20.1105 47.1885 19.9848 47.5172 19.7334C47.846 19.482 48.0909 19.1453 48.252 18.7231C48.4164 18.3009 48.4986 17.8352 48.4986 17.326C48.4986 16.8135 48.4164 16.3462 48.252 15.924C48.0909 15.4986 47.846 15.1586 47.5172 14.904C47.1885 14.6494 46.784 14.5221 46.3038 14.5221C45.8204 14.5221 45.4127 14.6494 45.0808 14.904C44.752 15.1586 44.5055 15.4986 44.3411 15.924C44.18 16.3462 44.0994 16.8135 44.0994 17.326ZM50.3851 13.5746H51.6226L53.2083 19.2307H53.2856L54.8519 13.5746H56.1088L57.6558 19.2113H57.7331L59.3188 13.5746H60.5563L58.3036 21H57.1434L55.5287 15.3343H55.4127L53.8077 21H52.6378L50.3851 13.5746ZM63.0276 21H61.848V13.5746H62.9889V14.7445H63.0856C63.266 14.3448 63.5368 14.0338 63.8977 13.8115C64.2587 13.5891 64.7099 13.4779 65.2513 13.4779C65.7605 13.4779 66.2037 13.5826 66.5807 13.7921C66.9578 13.9984 67.2495 14.311 67.4557 14.73C67.662 15.1489 67.7651 15.6662 67.7651 16.2818V21H66.5856V16.3688C66.5856 15.9885 66.5179 15.6614 66.3825 15.3874C66.2504 15.1103 66.057 14.8992 65.8024 14.7541C65.551 14.6059 65.2513 14.5318 64.9033 14.5318C64.5391 14.5318 64.2152 14.6107 63.9316 14.7686C63.648 14.9266 63.4256 15.157 63.2644 15.4599C63.1065 15.7629 63.0276 16.1238 63.0276 16.5428V21Z" fill="#6D4E33"/>
</svg>
